<svg xmlns="http://www.w3.org/2000/svg" width="29.191" height="29.193" viewBox="0 0 29.191 29.193">
  <path id="check-circle-svgrepo-com" d="M4.243,15.6A11.352,11.352,0,0,1,19.336,4.876,1.622,1.622,0,0,0,20.4,1.813a14.6,14.6,0,1,0,9.7,12.164,1.622,1.622,0,1,0-3.224.357A11.352,11.352,0,1,1,4.243,15.6Zm23.92-8.657a1.622,1.622,0,1,0-2.433-2.147L15.3,16.6l-5.162-4.205a1.622,1.622,0,0,0-2.05,2.514L14.455,20.1a1.622,1.622,0,0,0,2.238-.183L28.162,6.941Z" transform="translate(-1 -0.997)" fill="#e2e257" fill-rule="evenodd"/>
</svg>
