<svg xmlns="http://www.w3.org/2000/svg" xmlns:xlink="http://www.w3.org/1999/xlink" width="69.509" height="69.382" viewBox="0 0 69.509 69.382">
  <defs>
    <linearGradient id="linear-gradient" x1="1" y1="0.351" x2="0.355" y2="1.151" gradientUnits="objectBoundingBox">
      <stop offset="0" stop-color="#59f488"/>
      <stop offset="1" stop-color="#e2e257"/>
    </linearGradient>
  </defs>
  <path id="diplodocus-svgrepo-com" d="M70.766,22.944c-2.949.021-6.1.989-7.174,3.775-1.758.557-2.834,1.558-2.836,2.639,0,1.621,2.388,2.964,5.458,3.074A8.174,8.174,0,0,0,74.6,28.685c3.349,1.447,7.466,3.236,8.427,7.023,1.937,7.629-2.865,21.947-5.692,22.916-8.107,2.781-17.048,3.151-22.695,6.8C48.121,69.637,43.9,77.668,38,79.188c-4.8,1.237-14.295-1.076-15.464,2.681-.179,1.3.895,2.475,3.857.011,4.269,1.158,15.807,5.261,26.672-3.445q1.028.638,2.114,1.176c.148,4.141,1.207,8.575,1.864,12.715H64l-.732-6.619c.742-2.426,1.639-3.817,2.188-6.452l2.629.515a15.931,15.931,0,0,1-1.125,3.288A39.385,39.385,0,0,0,72,82.906a57.442,57.442,0,0,1-2.365-8.54l2.6-.656a90.659,90.659,0,0,0,2.677,8.975c.483,1.082,1.682,9.641,1.682,9.641h5.541l1.119-12.763a12.852,12.852,0,0,0,6.5-8.963c2.882-12,3.556-25.119-1.109-36.3-2.92-7-8.539-9.045-13.676-10.719a12.8,12.8,0,0,0-4.2-.641ZM89.282,77.622A18.634,18.634,0,0,1,85.8,80.938c-.3,3.67-.571,7.686-.875,11.388H89.8s-.293-8.473-.52-14.7ZM72.227,85.51a36.731,36.731,0,0,1-5.929.044l.72,6.773h6.22Z" transform="translate(-22.519 -22.944)" fill="url(#linear-gradient)"/>
</svg>
