<svg xmlns="http://www.w3.org/2000/svg" xmlns:xlink="http://www.w3.org/1999/xlink" width="60.296" height="58.117" viewBox="0 0 60.296 58.117">
  <defs>
    <linearGradient id="linear-gradient" x1="1.353" y1="-0.78" x2="0.5" y2="1.754" gradientUnits="objectBoundingBox">
      <stop offset="0" stop-color="#59f488"/>
      <stop offset="1" stop-color="#e2e257"/>
    </linearGradient>
  </defs>
  <g id="login-2-svgrepo-com_1_" data-name="login-2-svgrepo-com (1)" transform="translate(-1.625 -2)">
    <path id="Path_12" data-name="Path 12" d="M1.625,19.147A2.179,2.179,0,0,0,3.8,21.326H35.689l-5.7,4.884a2.179,2.179,0,1,0,2.837,3.309L43,20.8a2.179,2.179,0,0,0,0-3.309L32.828,8.775a2.179,2.179,0,0,0-2.837,3.309l5.7,4.883H3.8A2.179,2.179,0,0,0,1.625,19.147Z" transform="translate(0 11.912)" fill-rule="evenodd" fill="url(#linear-gradient)"/>
    <path id="Path_13" data-name="Path 13" d="M9.375,24.52h1.1a6.539,6.539,0,0,1,10.42-7.144l10.17,8.718a6.538,6.538,0,0,1,0,9.928L20.895,44.74A6.539,6.539,0,0,1,10.474,37.6h-1.1v5.085c0,8.219,0,12.328,2.553,14.882s6.663,2.553,14.882,2.553h2.906c8.219,0,12.328,0,14.882-2.553s2.553-6.663,2.553-14.882V19.435c0-8.219,0-12.328-2.553-14.882S37.935,2,29.716,2H26.81C18.591,2,14.482,2,11.928,4.553S9.375,11.216,9.375,19.435Z" transform="translate(14.77)" fill="url(#linear-gradient)"/>
  </g>
</svg>
