<svg xmlns="http://www.w3.org/2000/svg" xmlns:xlink="http://www.w3.org/1999/xlink" width="68.062" height="55.483" viewBox="0 0 68.062 55.483">
  <defs>
    <linearGradient id="linear-gradient" x1="0.824" y1="-0.352" x2="-0.527" y2="0.714" gradientUnits="objectBoundingBox">
      <stop offset="0" stop-color="#59f488"/>
      <stop offset="1" stop-color="#e2e257"/>
    </linearGradient>
  </defs>
  <g id="player-add-joystick-svgrepo-com" transform="translate(-0.062 -5.965)">
    <path id="Path_14" data-name="Path 14" d="M33.049,16A17.049,17.049,0,1,0,50.1,33.049,17.1,17.1,0,0,0,33.049,16Zm6.393,19.18H35.18v4.262a2.131,2.131,0,1,1-4.262,0V35.18H26.655a2.131,2.131,0,1,1,0-4.262h4.262V26.655a2.131,2.131,0,1,1,4.262,0v4.262h4.262a2.131,2.131,0,1,1,0,4.262Z" transform="translate(18.027 11.35)" fill="url(#linear-gradient)"/>
    <path id="Path_15" data-name="Path 15" d="M51.076,23.088h1.492A12.7,12.7,0,0,0,51.5,13.072a13.932,13.932,0,0,0-8.737-6.819A13.735,13.735,0,0,0,33.6,7.531a12.247,12.247,0,0,1-10.229,0,12.963,12.963,0,0,0-8.951-1.279,13.412,13.412,0,0,0-8.737,6.819A13.117,13.117,0,0,0,4.618,23.3L.356,37.367a7.047,7.047,0,0,0,1.066,6.18A6.8,6.8,0,0,0,7.175,46.53a7.49,7.49,0,0,0,5.754-2.77l7.246-10.016h12.36A21.576,21.576,0,0,1,51.076,23.088ZM38.5,13.712c0-.213.213-.426.426-.639a2.06,2.06,0,0,1,2.984,0c.213.213.426.426.426.639a1.281,1.281,0,0,1,.213.852,1.281,1.281,0,0,1-.213.852c-.213.213-.213.426-.426.639a2.06,2.06,0,0,1-2.984,0c-.213-.213-.426-.426-.426-.639s-.213-.639-.213-.852A1.281,1.281,0,0,1,38.5,13.712ZM34.027,18.4c0-.213,0-.213.213-.426,0-.213,0-.213.213-.426a.209.209,0,0,1,.213-.213l.213-.213c.213,0,.213-.213.426-.213s.213,0,.426-.213a1.719,1.719,0,0,1,1.918.639l.213.213c0,.213.213.213.213.426s0,.213.213.426v.852c0,.213,0,.213-.213.426,0,.213,0,.213-.213.426,0,.213-.213.213-.213.426a3.08,3.08,0,0,1-1.492.426h-.426c-.213,0-.213,0-.426-.213-.213,0-.213-.213-.426-.213l-.213-.213c0-.213-.213-.213-.213-.426a.744.744,0,0,1-.213-.426c0-.213,0-.213-.213-.426v-.426C34.027,18.4,34.027,18.613,34.027,18.4ZM21.241,20.957H19.109v2.131a2.013,2.013,0,0,1-2.131,2.131,2.013,2.013,0,0,1-2.131-2.131V20.957H12.716a2.013,2.013,0,0,1-2.131-2.131A2.013,2.013,0,0,1,12.716,16.7h2.131V14.564a2.013,2.013,0,0,1,2.131-2.131,2.013,2.013,0,0,1,2.131,2.131V16.7h2.131a2.013,2.013,0,0,1,2.131,2.131A2.013,2.013,0,0,1,21.241,20.957Z" transform="translate(0 0)" fill="url(#linear-gradient)"/>
  </g>
</svg>
