<svg id="qr-code-svgrepo-com" xmlns="http://www.w3.org/2000/svg" width="132.607" height="132.607" viewBox="0 0 132.607 132.607">
  <path id="Path_20" data-name="Path 20" d="M3,36.152H36.152V3H3ZM8.525,8.525h22.1v22.1H8.525Zm5.525,5.525H25.1V25.1H14.051ZM69.3,36.152h33.152V3H69.3ZM74.829,8.525h22.1v22.1h-22.1Zm5.525,5.525H91.4V25.1H80.354ZM3,102.456H36.152V69.3H3ZM8.525,74.829h22.1v22.1H8.525Zm5.525,5.525H25.1V91.4H14.051ZM96.93,91.4h5.525v11.051H91.4V85.88H96.93Zm0-16.576h5.525v5.525H96.93Zm0-5.525v5.525H91.4V69.3ZM41.677,80.354H47.2v22.1H41.677Zm-22.1-38.677V52.728H8.525V47.2H3V41.677ZM41.677,25.1H47.2v5.525H41.677ZM58.253,8.525V19.576H52.728V3H63.778V8.525Zm-16.576,0H47.2v5.525H41.677Zm55.253,44.2h5.525V63.778H91.4V58.253H96.93ZM91.4,41.677V47.2H80.354V58.253H69.3V52.728h5.525V41.677Zm-38.677,22.1H47.2V58.253H41.677V52.728H52.728ZM85.88,74.829H91.4v5.525H85.88ZM96.93,47.2v5.525H91.4V47.2ZM47.2,63.778V69.3H41.677V63.778ZM80.354,91.4H85.88v11.051H74.829V91.4Zm-16.576,0H69.3V96.93H63.778v5.525H52.728V96.93h5.525V91.4Zm0-5.525V80.354H74.829V85.88Zm0-27.627H69.3V74.829H63.778v5.525H58.253V85.88H52.728V74.829H47.2V69.3H63.778V63.778H58.253V58.253Zm-49.728,0v5.525H8.525V58.253Zm66.3,22.1H74.829V74.829h5.525ZM85.88,69.3H74.829V63.778H85.88ZM30.627,41.677h5.525V47.2H30.627v5.525h5.525V63.778H30.627V58.253H25.1v5.525H19.576V52.728H25.1V41.677Zm16.576,0V30.627H63.778V47.2H52.728V41.677h5.525V36.152H52.728v5.525Zm0-22.1h5.525V25.1H47.2Zm-5.525,22.1H47.2V47.2H41.677ZM58.253,25.1V19.576h5.525V25.1Z" transform="translate(13.576 13.576)" fill="#fff"/>
  <path id="Path_21" data-name="Path 21" d="M0,0H132.607V132.607H0Z" fill="none"/>
</svg>
