<svg xmlns="http://www.w3.org/2000/svg" xmlns:xlink="http://www.w3.org/1999/xlink" width="330.534" height="277.981" viewBox="0 0 330.534 277.981">
  <defs>
    <linearGradient id="linear-gradient" x1="0.5" x2="0.5" y2="1" gradientUnits="objectBoundingBox">
      <stop offset="0" stop-color="#e2e257"/>
      <stop offset="1" stop-color="#bcbc14" stop-opacity="0.702"/>
    </linearGradient>
    <clipPath id="clip-path">
      <rect id="Rectangle_38" data-name="Rectangle 38" width="330.534" height="277.981" fill="none"/>
    </clipPath>
    <clipPath id="clip-path-2">
      <path id="Path_90" data-name="Path 90" d="M110.728,17.706C75,31.327,46.537,53.316,28.66,76.766,8.2,103.557.1,134.762,9.807,160.989c12.45,33.413,49.963,53.792,105.821,59.234,27.913,2.741,57.213,3.234,84.694.34.216,19.851-9.479,36.2-26.842,50.837,41.408-2.255,69.984-26.388,84.662-64.2a143.974,143.974,0,0,0,24.851-12.628c30.365-19.609,43.041-47.248,41.783-74.667-1.069-23.323-11.455-49.084-32.839-71.41C265.757,21.187,222.628,5.671,177.614,5.669a188.966,188.966,0,0,0-66.886,12.037" fill="none"/>
    </clipPath>
    <clipPath id="clip-path-3">
      <path id="Path_91" data-name="Path 91" d="M114.944,26.835C82.732,39.116,54.909,59.1,36.6,83.114c-19.32,25.3-25.913,53.748-17.642,76.09a61.733,61.733,0,0,0,16.653,24.205,225.423,225.423,0,0,1,27.938-31.715c24.4-23.055,55.268-42.674,90.952-56.255a280.346,280.346,0,0,1,84.767-18.212A231.176,231.176,0,0,1,306.925,83.3a118.3,118.3,0,0,0-19.942-27.737c-24.136-25.176-64.577-40.2-108.185-40.2a181.67,181.67,0,0,0-63.854,11.475" fill="url(#linear-gradient)"/>
    </clipPath>
    <clipPath id="clip-path-5">
      <rect id="Rectangle_47" data-name="Rectangle 47" width="58.42" height="78.377" fill="none"/>
    </clipPath>
    <clipPath id="clip-path-7">
      <rect id="Rectangle_45" data-name="Rectangle 45" width="55.72" height="74.974" fill="none"/>
    </clipPath>
    <clipPath id="clip-path-8">
      <rect id="Rectangle_48" data-name="Rectangle 48" width="49.745" height="49.746" fill="none"/>
    </clipPath>
    <clipPath id="clip-path-9">
      <rect id="Rectangle_49" data-name="Rectangle 49" width="52.833" height="74.963" fill="none"/>
    </clipPath>
    <clipPath id="clip-path-10">
      <rect id="Rectangle_50" data-name="Rectangle 50" width="44.196" height="70.258" fill="none"/>
    </clipPath>
    <clipPath id="clip-path-11">
      <rect id="Rectangle_51" data-name="Rectangle 51" width="42.821" height="27.464" transform="translate(0 0)" fill="none"/>
    </clipPath>
  </defs>
  <g id="Group_106" data-name="Group 106" transform="translate(-799.733 -4136)">
    <g id="Group_68" data-name="Group 68" transform="translate(799.733 4136)">
      <g id="Group_61" data-name="Group 61">
        <g id="Group_60" data-name="Group 60" clip-path="url(#clip-path)">
          <path id="Path_89" data-name="Path 89" d="M156.878,277.981l12.947-10.914c13.732-11.578,21.582-23.556,24-36.614l.669-3.618-3.67.276c-9.489.713-19.432,1.076-29.552,1.076-14.962,0-30.507-.781-46.2-2.321-28.738-2.8-52.756-9.469-71.385-19.816C24.325,195.294,11.139,180.8,4.495,162.968c-10.127-27.354-2.962-60.03,19.661-89.641,19.874-26.075,49.9-47.709,84.553-60.92A196,196,0,0,1,177.615,0c47.391,0,91.657,16.662,118.413,44.573C317,66.469,329.223,93.13,330.44,119.645c1.465,31.965-14.293,60.266-44.371,79.691A148.285,148.285,0,0,1,263.582,211.1l-1.066.451-.447,1.068c-16.46,39.35-47.812,62.239-88.28,64.443Z" fill="#f60"/>
        </g>
      </g>
      <g id="Group_63" data-name="Group 63">
        <g id="Group_62" data-name="Group 62" clip-path="url(#clip-path-2)">
          <path id="Path_93" data-name="Path 93" d="M0,0H369.866V402.593H0Z" transform="translate(-93.505 232.83) rotate(-67.605)" fill="#e2e257"/>
        </g>
      </g>
      <g id="Group_64" data-name="Group 64" transform="translate(0 2)" clip-path="url(#clip-path-3)" style="mix-blend-mode: normal;isolation: isolate">
        <rect id="Rectangle_40" data-name="Rectangle 40" width="254.8" height="334.656" transform="translate(-40.724 165.842) rotate(-71.136)" fill="url(#linear-gradient)"/>
      </g>
      <g id="Group_67" data-name="Group 67">
        <g id="Group_66" data-name="Group 66" clip-path="url(#clip-path)">
          <path id="Path_92" data-name="Path 92" d="M84.262,167.757c-22.355-8.08-25.924-6.406-34,15.949,8.079-22.355,6.405-25.924-15.95-34,22.355,8.08,25.924,6.407,34-15.949-8.079,22.356-6.4,25.924,15.95,34" fill="#fff"/>
        </g>
      </g>
    </g>
    <g id="Group_82" data-name="Group 82" transform="translate(825.79 4237.509)">
      <g id="Group_81" data-name="Group 81" clip-path="url(#clip-path-5)">
        <g id="Group_80" data-name="Group 80" transform="translate(0 -0.001)">
          <g id="Group_79" data-name="Group 79" clip-path="url(#clip-path-5)">
            <path id="Path_121" data-name="Path 121" d="M57.323,45.511a21.634,21.634,0,0,0-4.7-8.491c-5.069-5.614-12.353-7.535-19.735-6.717-7.1.781-12.348,5.749-15.78,11.657.273-.47-.644-2.995-.732-3.621a22.2,22.2,0,0,1,1.29-11.4c1.8-4.6,5.7-9.622,10.783-10.686,6.186-1.3,9.561,3.584,14.34,6.188,2.946,1.608,6.9,2.442,10.005.789a8.015,8.015,0,0,0,3.761-8.9C54.587,6.444,45.948,1.032,38.306.183c-7.436-.827-15.368,1.211-21.855,4.8C3.1,12.368-.063,28.408,0,42.475c.06,13.752,5.044,27.187,18.411,32.871a41.009,41.009,0,0,0,19.8,2.777c6.173-.773,11.854-3.717,15.356-8.961a28.318,28.318,0,0,0,3.759-23.652M56.763,59.3a20.663,20.663,0,0,1-6.211,11.3A20,20,0,0,1,43.9,74.7c-8.449,3.136-17.661,2.267-25.864-1.225C5.606,68.2,1.62,54.594,1.419,42.19,1.2,28.686,4.571,13.807,16.86,6.41,22.714,2.887,29.884,1.5,36.642,1.681c.081,0,.156.01.238.015a22.251,22.251,0,0,1,8.086,2.6A23,23,0,0,1,55.011,14.913c1.69,4.106-3.3,7.371-6.594,7.27-2.364-.075-4.595-1.536-6.447-2.824-2.6-1.809-5.094-4.859-8.4-5.386-14.585-2.32-22.868,18.138-17.02,29.3.213.4.788.037.828-.344,4.217-5.572,8.2-9.846,15.531-10.974a20.538,20.538,0,0,1,19,7.29c2.025,2.443,3.416,6.613,4.284,9.624A22.561,22.561,0,0,1,56.763,59.3" transform="translate(0 0.001)" fill="#44276a"/>
            <path id="Path_122" data-name="Path 122" d="M51.54,38.811a20.538,20.538,0,0,0-19-7.29c-7.332,1.126-11.313,5.4-15.53,10.974-.042.38-.617.747-.83.344-5.847-11.165,2.435-31.622,17.02-29.3,3.3.527,5.8,3.576,8.4,5.386,1.851,1.287,4.083,2.747,6.447,2.824,3.289.1,8.283-3.164,6.594-7.27A23.009,23.009,0,0,0,44.593,3.855a22.245,22.245,0,0,0-8.085-2.6c-.083-.007-.156-.012-.239-.015-6.757-.186-13.928,1.206-19.781,4.729C4.2,13.368.828,28.247,1.048,41.751c.2,12.4,4.187,26.011,16.614,31.29,8.2,3.49,17.414,4.361,25.864,1.225a19.982,19.982,0,0,0,6.653-4.108,20.673,20.673,0,0,0,6.212-11.3,22.561,22.561,0,0,0-.566-10.422c-.868-3.011-2.259-7.18-4.285-9.624M44.256,59.3a11.623,11.623,0,0,1-6.678,8.081,10.4,10.4,0,0,1-10.724-1.187c-6.541-4.828-5.7-13.619-.132-19.038,2.648-2.576,6.314-4.02,9.974-2.849a11.727,11.727,0,0,1,7.7,7.683,13.147,13.147,0,0,1-.141,7.311" transform="translate(0.372 0.44)" fill="#905aa2"/>
            <g id="Group_78" data-name="Group 78" transform="translate(1.409 1.666)" opacity="0.4" style="mix-blend-mode: multiply;isolation: isolate">
              <g id="Group_77" data-name="Group 77">
                <g id="Group_76" data-name="Group 76" clip-path="url(#clip-path-7)">
                  <path id="Path_123" data-name="Path 123" d="M55.824,48.434c-.866-3.01-2.259-7.179-4.284-9.624a20.538,20.538,0,0,0-19-7.289c-7.334,1.126-11.313,5.4-15.531,10.972-.041.382-.615.748-.828.344-5.848-11.165,2.435-31.621,17.02-29.3,3.3.527,5.8,3.577,8.4,5.388,1.851,1.286,4.083,2.747,6.447,2.822,3.289.1,8.282-3.163,6.592-7.27A23.013,23.013,0,0,0,44.593,3.855a22.241,22.241,0,0,0-8.085-2.6c-.083-.007-.158-.012-.239-.016-6.758-.185-13.928,1.206-19.782,4.729C4.2,13.368.828,28.248,1.047,41.751c.2,12.4,4.187,26.012,16.615,31.291,8.2,3.49,17.414,4.361,25.864,1.224a19.974,19.974,0,0,0,6.653-4.108,20.658,20.658,0,0,0,6.211-11.3,22.544,22.544,0,0,0-.566-10.422M44.257,59.3a11.629,11.629,0,0,1-6.678,8.081,10.4,10.4,0,0,1-10.725-1.188c-6.539-4.828-5.7-13.618-.13-19.038,2.648-2.576,6.314-4.02,9.973-2.849a11.73,11.73,0,0,1,7.7,7.683,13.151,13.151,0,0,1-.14,7.312m7-10.07c-.2,1.07-2.221,2.857-3.069,1.334-3.391-6.1-9.322-11.094-16.752-8.778-5.071,1.584-9.514,5.587-10.94,10.6a19.692,19.692,0,0,0-.124,4.573c.342,3.107,1.709,5.951,2.21,9.027.656,1.046-.387,2.8-1.55,3.064a3.089,3.089,0,0,1-1.919.276C12.788,69.28,8.524,61.718,6.258,56.587a37.327,37.327,0,0,1-2.81-18.411,29.234,29.234,0,0,1,.109-3.4,31.588,31.588,0,0,1,.547-4.1,34.622,34.622,0,0,1,1.1-4.182A34.613,34.613,0,0,1,9.25,16.252a22.775,22.775,0,0,1,8.259-8.8A27.347,27.347,0,0,1,29.029,3.775c2.989-.311,7.426-.733,9.725,1.723,2.092,2.233.831,5.017-1.706,6.205-1.836.861-3.8.448-5.731.354a17.243,17.243,0,0,0-7.27,1.12c-7.574,3.155-10.259,10.38-11.98,17.736A28.417,28.417,0,0,0,12.956,42.5c.143.4.277.808.4,1.217.09.262.178.531.262.807a50.348,50.348,0,0,0,2.519,5.4c1.829-7.842,8.025-14.836,16.2-15.948,9.576-1.305,20.949,4.157,18.921,15.258" transform="translate(-1.038 -1.226)" fill="#74459a"/>
                </g>
              </g>
            </g>
            <path id="Path_124" data-name="Path 124" d="M31.105,33.052c-3.659-1.171-7.326.273-9.974,2.849-5.57,5.42-6.408,14.21.132,19.038a10.4,10.4,0,0,0,10.724,1.188,11.625,11.625,0,0,0,6.678-8.082,13.134,13.134,0,0,0,.141-7.311,11.73,11.73,0,0,0-7.7-7.683M37.954,46.2a12.493,12.493,0,0,1-2.716,6.281,11.162,11.162,0,0,1-2.769,2.364,9.553,9.553,0,0,1-4.145,1.108,10.939,10.939,0,0,1-6.317-1.976c-5.877-4.063-4.895-12.39-.69-17.259,4.009-4.639,11.605-3.613,14.9,1.256a11.739,11.739,0,0,1,1.931,4.49,11.861,11.861,0,0,1-.2,3.735" transform="translate(5.963 11.69)" fill="#44276a"/>
            <path id="Path_125" data-name="Path 125" d="M18.961,6.95C10.645,11.887,6.246,19.146,4.63,28.611a49.6,49.6,0,0,0-.06,14.665c.566,4.322,1.654,9.352,4.461,12.811.431.531,1.259-.071,1.084-.667-1.153-3.933-2.684-7.626-3.443-11.674A48.742,48.742,0,0,1,6.13,30.66,32.2,32.2,0,0,1,19.056,7.154c.1-.073.042-.287-.1-.2" transform="translate(1.452 2.483)" fill="#fff"/>
            <path id="Path_126" data-name="Path 126" d="M10.048,45.686A1.914,1.914,0,0,0,9.7,44.75c-.447-.528-1.264.068-1.1.676a1.956,1.956,0,0,0,.676.866.447.447,0,0,0,.555-.035.572.572,0,0,0,.213-.572" transform="translate(3.073 15.953)" fill="#fff"/>
            <path id="Path_127" data-name="Path 127" d="M43,33.316c-1.258-1.843-2.995-4.343-5.01-5.45-3-1.653-6.117-1.943-9.5-1.964-5-.035-9.435,3.331-11.882,7.474-.16.263.223.46.392.223,2.585-3.736,7.669-5.859,12.106-5.814a22.544,22.544,0,0,1,7.153,1.164c2.623.9,4.125,3.053,5.852,5.062.418.49,1.226-.186.884-.694" transform="translate(5.934 9.277)" fill="#fff"/>
            <path id="Path_128" data-name="Path 128" d="M37.306,32.938a.426.426,0,0,0-.179-.08c-.211-.213-.638.018-.7.314-.018.072-.02.141-.031.212.011-.01.005.262.011.273a.493.493,0,0,0,.8.185.6.6,0,0,0,.1-.9" transform="translate(13.032 11.738)" fill="#fff"/>
            <path id="Path_129" data-name="Path 129" d="M36.385,33.273a.176.176,0,0,0,.008-.05l-.008.05" transform="translate(13.03 11.898)" fill="#fff"/>
            <path id="Path_130" data-name="Path 130" d="M31.631,3.845S41.78,9.155,42.33,15.8c0,0-.617,5.188-6.641,3.319,0,0,4.931.534,4.432-4.244s-8.49-11.029-8.49-11.029" transform="translate(11.328 1.378)" fill="#44276a"/>
            <path id="Path_131" data-name="Path 131" d="M50.258,36.83s2.948,17.717-12.736,23.623S12.607,57.87,12.607,57.87s11.813,6.27,23.806.553S50.284,42.353,50.258,36.83" transform="translate(4.515 13.19)" fill="#905aa2"/>
          </g>
        </g>
      </g>
    </g>
    <g id="Group_84" data-name="Group 84" transform="translate(893.25 4253.53)">
      <g id="Group_83" data-name="Group 83" transform="translate(0 0)" clip-path="url(#clip-path-8)">
        <path id="Path_132" data-name="Path 132" d="M43.961,16.889c-3.191-.961-6.691-.563-9.984-.486-.211,0-.419,0-.631.011,0-.212.007-.422.012-.631.082-3.294.489-6.793-.466-9.983a8.424,8.424,0,0,0-16-.015c-.96,3.189-.563,6.69-.486,9.981.008.42.014.837.021,1.252-1.868.092-3.734.142-5.612.085a14.313,14.313,0,0,0-7.67,1.705.634.634,0,0,0-.452.186c-.1.092-.179.2-.27.3a6.17,6.17,0,0,0-2.4,5.563A6.188,6.188,0,0,0,2.4,30.417c.092.1.178.2.272.3a.628.628,0,0,0,.453.186,14.285,14.285,0,0,0,7.666,1.718c2.072-.058,4.133.014,6.193.125.108,2.061.175,4.119.113,6.19A14.323,14.323,0,0,0,18.8,46.6a.645.645,0,0,0,.187.453c.092.1.2.181.294.27a6.186,6.186,0,0,0,5.564,2.4,6.2,6.2,0,0,0,5.569-2.39c.1-.089.2-.177.294-.271a.622.622,0,0,0,.187-.453,14.251,14.251,0,0,0,1.718-7.663c-.052-1.878,0-3.747.1-5.613l1.252.024c3.291.085,6.791.485,9.983-.466a8.425,8.425,0,0,0,.014-16" transform="translate(0 0)" fill="#2f828e"/>
        <path id="Path_133" data-name="Path 133" d="M44.914,30.5c-2.668,1.75-5.653,1.225-8.631,1.247-.816,0-1.631.025-2.447.037a10.823,10.823,0,0,1-2.26.1c-.042.593-.082,1.183-.131,1.771-.006.2-.014.405-.026.606v.2a.352.352,0,0,1-.019.081,35.37,35.37,0,0,1-.916,6.77c-.576,2.263-1.322,4.778-3.7,5.78a6.066,6.066,0,0,1-2.235.5,6.091,6.091,0,0,1-2.235-.5c-2.374-1.007-3.118-3.524-3.688-5.79a38.955,38.955,0,0,1-.964-8.051c-.04-.484-.052-.969-.073-1.453-.321-.045-.641-.11-.959-.181l0,.019a41.424,41.424,0,0,1-8.66-1C5.713,30.049,3.2,29.3,2.2,26.928a6.048,6.048,0,0,1-.5-2.234,6.056,6.056,0,0,1,.5-2.237c1.006-2.373,3.524-3.116,5.789-3.688a38.54,38.54,0,0,1,7.928-.957,6.25,6.25,0,0,1,1.061-.114c.161-.014.32-.031.476-.047a8.537,8.537,0,0,1,.054-.865h-.012c.027-1.263.059-2.531.067-3.8.025-2.98-.49-5.965,1.261-8.63a8.083,8.083,0,0,1,5.77-3.45,8.075,8.075,0,0,1,5.765,3.462C32.1,7.038,31.579,10.023,31.6,13c0,.9.022,1.8.044,2.7.061.591.071,1.187.073,1.779,1.282.092,2.568.15,3.851.211.244.006.484.012.725.014,2.978.025,5.962-.49,8.629,1.258a8.084,8.084,0,0,1,3.449,5.775A8.078,8.078,0,0,1,44.914,30.5" transform="translate(0.301 0.161)" fill="#47c3d5"/>
        <path id="Path_134" data-name="Path 134" d="M44.923,18.96c-2.667-1.749-5.651-1.233-8.629-1.259-.241,0-.482-.008-.725-.013-1.282-.061-2.568-.119-3.851-.212,0-.592-.012-1.187-.073-1.778-.021-.9-.039-1.8-.044-2.7-.022-2.979.5-5.964-1.245-8.631A8.074,8.074,0,0,0,24.592.91a8.075,8.075,0,0,0-5.77,3.45c-1.751,2.665-1.236,5.65-1.26,8.629-.009,1.266-.041,2.532-.068,3.8h.012a8.514,8.514,0,0,0-.054.864c-.155.018-.314.033-.476.048a6.132,6.132,0,0,0-1.061.114,38.541,38.541,0,0,0-7.928.957C5.722,19.342,3.2,20.084,2.2,22.458a6.093,6.093,0,0,0-.5,2.237,6.09,6.09,0,0,0,.5,2.233c1,2.374,3.517,3.123,5.779,3.7a41.425,41.425,0,0,0,8.661,1l0-.019c.317.072.636.138.957.181.022.484.033.969.073,1.454a39.014,39.014,0,0,0,.964,8.05c.57,2.266,1.314,4.784,3.688,5.791a6.1,6.1,0,0,0,2.235.5,6.046,6.046,0,0,0,2.235-.5c2.376-1,3.123-3.516,3.7-5.78a35.358,35.358,0,0,0,.916-6.768.347.347,0,0,0,.019-.082v-.2c.012-.2.02-.405.027-.606.047-.589.087-1.179.13-1.772a10.822,10.822,0,0,0,2.26-.1c.816-.012,1.631-.032,2.447-.037,2.978-.022,5.964.5,8.631-1.247a8.08,8.08,0,0,0,3.458-5.762,8.084,8.084,0,0,0-3.449-5.775M23.613,45.451c-2,1.374-3.246-1.412-3.641-2.861a25.107,25.107,0,0,1-.557-2.541c-.792-2.091-1.281-4.413-.815-6.193a3.616,3.616,0,0,1,3.429-3c2.005-.039,2.624,2.437,2.782,3.988.183,1.787.035,3.482.352,5.238.372,2.069.323,4.088-1.551,5.372m4.1-37.507c-.553,2.563-1.368,4.732-1.513,7.4-.178,3.339.286,7.957-3.517,9.512-3.55,1.454-8.059,1.223-11.882,1.7-2.008.247-6.754,1.36-7.9-1.081a2.412,2.412,0,0,1,.578-3.137,2.218,2.218,0,0,1,.251-.294c2.114-2.114,5.251-2.21,8.068-2.36,2.427-.128,4.866-.565,7.289-.569a56.728,56.728,0,0,1-.565-6.68c0-4.427,1.16-10.779,6.96-9.875a.956.956,0,0,1,.8.576,2.705,2.705,0,0,1,.374.219A2.38,2.38,0,0,1,27.511,5.2a4.815,4.815,0,0,1,.2,2.75M42.764,25.318c-2.575-1.193-5.656-.731-8.422-.655-1.6.045-3.364-.164-3.878-1.945-.973-3.394,4.119-3.7,6.146-3.693a1.259,1.259,0,0,1,.871.294c3.205-.145,6.5.016,7.6,3.405.362,1.106-1,3.2-2.315,2.593" transform="translate(0.301 0.162)" fill="#08bed9"/>
        <path id="Path_135" data-name="Path 135" d="M21.387,3.227c-2.379.59-3.435,2.628-3.873,4.907-.586,3.052,1.969,10.286-1.709,11.449-.3.091-.679.695-.2.836,2.91.849,3.961-1.1,3.982-3.769.028-4.306-2.176-9.79,1.942-12.914.2-.15.179-.59-.145-.509" transform="translate(2.73 0.571)" fill="#fff"/>
        <path id="Path_136" data-name="Path 136" d="M13.412,17.378a.547.547,0,0,0-.491.086.634.634,0,0,1-.46-.008c-.225-.071-.526.3-.287.452.385.239,1.152.477,1.367-.1.058-.148.062-.365-.128-.426" transform="translate(2.145 3.08)" fill="#fff"/>
        <path id="Path_137" data-name="Path 137" d="M19.131,37.005c-.505-2.29-1.145-4.608-1.725-6.889-.08-.321-.549-.092-.526.177.18,2.287-.055,5.308,1.359,7.262.347.482,1-.081.893-.55" transform="translate(2.996 5.319)" fill="#fff"/>
        <path id="Path_138" data-name="Path 138" d="M38.91,19.674c-1.028-2.536-5.077-3-7.4-2.644-.245.039-.369.53-.058.517a12.481,12.481,0,0,1,4.405.752,5.716,5.716,0,0,1,2.508,1.8c.227.239.649-.166.546-.43" transform="translate(5.55 3.004)" fill="#fff"/>
      </g>
    </g>
    <g id="Group_86" data-name="Group 86" transform="translate(948.86 4237.509)">
      <g id="Group_85" data-name="Group 85" transform="translate(0 0)" clip-path="url(#clip-path-9)">
        <path id="Path_139" data-name="Path 139" d="M50.546,20.607c-.509-1.38-1.072-2.734-1.683-4.042C45.04,8.406,39.575,3.333,30.884.873a21.415,21.415,0,0,0-21.8,5.905,25.612,25.612,0,0,0-6.66,16.206,25.161,25.161,0,0,0-.2,9.327,19.208,19.208,0,0,0,3.3,7.976c3.914,5.469,10.157,7.9,16.762,7.918,6.355.021,11.488-3.842,15.116-8.718,1.735,9.532-3.591,20.538-13.831,21.755-4.745.563-7.445-4.719-10.821-7.088-2.551-1.788-5.216-2.695-8.276-1.829A7.186,7.186,0,0,0,.468,55.8C-.6,58.662.318,61.965,1.6,65.015c.266.434.542.865.83,1.283a19.77,19.77,0,0,0,12.052,7.977,33.607,33.607,0,0,0,19.792-2.046C44.85,67.857,49.638,57.312,51.7,46.658c-.067-.066,3.251-15.349-1.152-26.051m.749,20.252c-1.161,11.953-5.637,24.767-17.237,30.066a32.739,32.739,0,0,1-17.95,2.193c-.072-.01-.142-.026-.212-.038a19.775,19.775,0,0,1-6.888-3.109A20.439,20.439,0,0,1,1.2,59.583c-1.083-3.8,3.66-6.185,6.559-5.762,2.078.3,3.9,1.816,5.41,3.141,2.114,1.861,4.014,4.8,6.882,5.6,12.659,3.517,22.029-13.73,17.982-24.181-.147-.381-.692-.113-.768.217-4.289,4.506-8.231,7.88-14.823,8.137A18.186,18.186,0,0,1,7.871,40.364a.223.223,0,0,1-.071-.038C.937,34.09,1.851,21.35,6.089,13.652a26.983,26.983,0,0,1,3.963-6.091C16.33.24,25.66.228,34.18,3.723c6.68,2.737,12.166,9.12,14.705,15.792a46.229,46.229,0,0,1,2.422,11.957,47.165,47.165,0,0,1-.012,9.387" transform="translate(0 0.001)" fill="#00517a"/>
        <path id="Path_140" data-name="Path 140" d="M48.692,19.247c-2.54-6.672-8.025-13.054-14.705-15.792C25.466-.041,16.137-.028,9.859,7.292A26.969,26.969,0,0,0,5.9,13.384C1.657,21.081.744,33.823,7.607,40.058a.213.213,0,0,0,.07.037A18.188,18.188,0,0,0,22.25,46.468c6.592-.258,10.535-3.632,14.824-8.137.076-.33.621-.6.768-.217,4.047,10.452-5.324,27.7-17.982,24.181-2.867-.8-4.768-3.738-6.882-5.6-1.506-1.326-3.332-2.838-5.41-3.142-2.9-.423-7.642,1.964-6.559,5.762A20.433,20.433,0,0,0,8.815,69.7,19.759,19.759,0,0,0,15.7,72.812c.071.012.141.029.212.038a32.742,32.742,0,0,0,17.952-2.193c11.6-5.3,16.074-18.113,17.237-30.066a47.074,47.074,0,0,0,.011-9.387,46.2,46.2,0,0,0-2.421-11.957m-19.738,14c-2.6,2.01-5.98,2.916-9.1,1.513A10.409,10.409,0,0,1,13.826,27.2a11.657,11.657,0,0,1,.86-6.449,10.341,10.341,0,0,1,6.71-6.468,9.252,9.252,0,0,1,9.358,2.127c5.29,4.922,3.666,12.608-1.8,16.835" transform="translate(0.193 0.269)" fill="#0784c0"/>
        <path id="Path_141" data-name="Path 141" d="M51.113,31.2a46.247,46.247,0,0,0-2.421-11.958c-2.54-6.672-8.025-13.054-14.706-15.792C25.466-.04,16.137-.028,9.859,7.291A27,27,0,0,0,5.9,13.383C1.657,21.08.744,33.822,7.607,40.057a.244.244,0,0,0,.07.038A18.19,18.19,0,0,0,22.25,46.466c6.592-.258,10.535-3.632,14.824-8.137.076-.33.621-.6.768-.216,4.047,10.451-5.324,27.7-17.982,24.181-2.867-.8-4.768-3.739-6.882-5.6-1.506-1.325-3.332-2.838-5.411-3.141-2.9-.423-7.641,1.962-6.558,5.761A20.441,20.441,0,0,0,8.815,69.7,19.759,19.759,0,0,0,15.7,72.812c.071.011.141.028.212.038a32.754,32.754,0,0,0,17.952-2.194c11.6-5.3,16.074-18.112,17.237-30.065a47.074,47.074,0,0,0,.011-9.387M37.576,59.652a19.072,19.072,0,0,1-23.89,10.627c-3.5-1.278-7.535-3.525-9.447-6.95a8.474,8.474,0,0,1-.769-5.053A2.473,2.473,0,0,1,5.11,56.429a4.118,4.118,0,0,1,4.775.529c2.351,2.018,4.182,4.35,7.144,5.6a16.856,16.856,0,0,0,10.891.883c4.475-1,5.043-4.2,7.649-5.845,1.522-.96,2.572.694,2.006,2.058M28.954,33.24c-2.6,2.01-5.98,2.916-9.1,1.515a10.411,10.411,0,0,1-6.032-7.56,11.651,11.651,0,0,1,.86-6.447,10.343,10.343,0,0,1,6.71-6.47A9.255,9.255,0,0,1,30.753,16.4c5.29,4.922,3.666,12.608-1.8,16.835m14.465-15c-2.043,4.95-7.2,1.412-9.569-.95a22.453,22.453,0,0,0-6.8-4.723c-3.764-.359-7.616-.54-10.684,2.2a13.9,13.9,0,0,0-4.886,9.7c-.006.28-.006.56-.006.84a12.455,12.455,0,0,0,.545,3.352,1.658,1.658,0,0,1,.022.841c.86,2.213,1.9,4.35,2.58,6.64a2.432,2.432,0,0,1-1.616,2.76C7.293,41.373,5.627,32.14,5.159,28.463a24.016,24.016,0,0,1-.141-4.348c-.032-6.936,3.162-14.007,9.23-17.64a20.5,20.5,0,0,1,12.4-2.8A17.413,17.413,0,0,1,38.434,7.636c2.913,2.546,6.71,6.416,4.984,10.6" transform="translate(0.193 0.269)" fill="#0073b6"/>
        <path id="Path_142" data-name="Path 142" d="M28.383,14.072a9.252,9.252,0,0,0-9.358-2.127,10.338,10.338,0,0,0-6.71,6.47,11.651,11.651,0,0,0-.86,6.447,10.407,10.407,0,0,0,6.032,7.559c3.116,1.4,6.5.5,9.1-1.513,5.465-4.228,7.089-11.914,1.8-16.835M26.27,29.379c-3.824,3.525-10.133,1.937-12.446-2.488a9.912,9.912,0,0,1-1.2-3.966,9.949,9.949,0,0,1,.521-3.131,10.614,10.614,0,0,1,2.894-5.037A9.5,9.5,0,0,1,18.6,13.027a8.158,8.158,0,0,1,3.6-.538,9.315,9.315,0,0,1,5.133,2.273c4.569,3.99,2.939,10.915-1.069,14.618" transform="translate(2.563 2.603)" fill="#00517a"/>
        <path id="Path_143" data-name="Path 143" d="M14.693,6.4A16.408,16.408,0,0,0,6.7,14.192C4.753,17.906,4.1,23.922,5.651,27.827c.242.61,1.107.218,1.066-.352-.277-3.681-.611-7.478.361-11.09C8.223,12.126,11.222,9,14.818,6.675c.15-.1.061-.354-.125-.272" transform="translate(1.084 1.447)" fill="#fff"/>
        <path id="Path_144" data-name="Path 144" d="M6.918,25.149a1.11,1.11,0,0,1-.063-.113c-.2-.586-1.05-.189-1,.334a1.778,1.778,0,0,0,.081.385c.239.737,1.364.017.981-.606" transform="translate(1.326 5.604)" fill="#fff"/>
        <path id="Path_145" data-name="Path 145" d="M19.752,55.3a15.606,15.606,0,0,1-5.223-2.977,45.477,45.477,0,0,0-5.277-4.431,4.147,4.147,0,0,0-5.552.569c-.1.131,0,.369.177.272,3.348-1.815,6.457,2.381,8.737,4.326,1.816,1.55,4.461,3.287,6.94,3.1.383-.029.608-.7.2-.856" transform="translate(0.828 10.666)" fill="#fff"/>
        <path id="Path_146" data-name="Path 146" d="M19.335,53.252c-.139.025-.027.02-.121-.015-.8-.288-1.528,1.022-.7,1.424a1.13,1.13,0,0,0,1.023.013.952.952,0,0,0,.535-.828.605.605,0,0,0-.74-.595" transform="translate(4.11 12.047)" fill="#fff"/>
        <path id="Path_147" data-name="Path 147" d="M40.43,15.253c.188.319,7.588,23.3-.969,39.429,0,0-5.7,10.253-16.29,13.463,0,0,13.123-6.878,16.29-20.951a86.179,86.179,0,0,0,.969-31.94" transform="translate(5.247 3.455)" fill="#0784c0"/>
      </g>
    </g>
    <g id="Group_88" data-name="Group 88" transform="translate(1067.175 4237.508)">
      <g id="Group_87" data-name="Group 87" transform="translate(0 0.001)" clip-path="url(#clip-path-10)">
        <path id="Path_148" data-name="Path 148" d="M38.494,7.19C32.9,1.012,25.329-.719,17.244.252A20.879,20.879,0,0,0,6.6,4.926C-.639,9.2-2.166,20.931,3.23,27.23a14.024,14.024,0,0,0,3.513,3.439c3.041,2.07,7.329,1.314,10.294-.459,4.562-2.73-.711-5.874-.9-9.376-.219-4.044,3.987-6.717,7.548-6.679a7.736,7.736,0,0,1,7.149,4.993c2.591,6.4-2.42,10.24-7.44,12.787-3.506,1.777-6.552,4-8.58,7.424-1.53,2.574-2.234,6.205-.858,8.837A5.846,5.846,0,0,0,15.2,50.206c1.3,1.39,4.515,2.048,6.305,1.671,1.76-.37,3.845-1.291,4.8-2.951,0-.007.009-.007.01-.011a.468.468,0,0,0,.031-.057c.042-.08.1-.151.139-.238a13.071,13.071,0,0,0,1.022-3.78c.2-1.383.079-2.368.685-3.337a31.227,31.227,0,0,1,4.943-3.095,33.809,33.809,0,0,0,5.926-4.522,17.236,17.236,0,0,0,4.679-8.433c1.539-6.395-.913-13.475-5.241-18.261" transform="translate(0 -0.001)" fill="#85275e"/>
        <path id="Path_149" data-name="Path 149" d="M39.8,30.881c-2.623,3.685-7,5.993-10.789,8.259-1.934,1.153-3.5,2.477-3.358,4.722-.1.462.158,2.094.072,2.7-.56,3.893-4.308,4.618-7.624,3.855-2.067-.477-3.056-2.68-3.73-4.388-.416-1.83.353-4.091,1-5.634a14.577,14.577,0,0,1,5.4-5.977c2.965-2.05,7.2-3.036,9.644-5.806,4.574-5.191,2.378-14.558-4.784-15.989-6.711-1.345-14.062,5.228-9.856,11.905.848,1.351,3.083,2.928.006,4.763a9.563,9.563,0,0,1-4.641,1.118c-3.272.094-5.71-2.236-7.454-4.733-.107-.154-.19-.311-.292-.464a17.453,17.453,0,0,1-1.888-8.973C1.871,10.765,4.379,8.4,7.736,5.606c3.514-2.923,8.606-4.169,13.078-4.378a20.717,20.717,0,0,1,18.615,9.819C43.255,16.966,44,24.983,39.8,30.881" transform="translate(0.215 0.176)" fill="#e93f96"/>
        <path id="Path_150" data-name="Path 150" d="M14.593,61.893a6.089,6.089,0,0,0,6.509.761,7.309,7.309,0,0,0,4.061-5.123,8.675,8.675,0,0,0,.089-4.638,7.269,7.269,0,0,0-4.672-4.875,5.888,5.888,0,0,0-6.059,1.8c-3.385,3.434-3.9,9.014.071,12.076" transform="translate(1.729 7)" fill="#85275e"/>
        <path id="Path_151" data-name="Path 151" d="M14.485,51.02c2.269-2.738,6.571-2.129,8.434.752a7.113,7.113,0,0,1,1.094,2.655,7.347,7.347,0,0,1-.116,2.207,7.513,7.513,0,0,1-1.544,3.716,6.286,6.286,0,0,1-1.566,1.394,5.236,5.236,0,0,1-2.348.656,6.022,6.022,0,0,1-3.573-1.174C11.54,58.822,12.1,53.9,14.485,51.02" transform="translate(1.837 7.22)" fill="#e93f96"/>
        <path id="Path_152" data-name="Path 152" d="M39.407,10.914a20.71,20.71,0,0,0-18.621-9.8C16.313,1.322,11.223,2.573,7.712,5.5,4.355,8.3,1.85,10.662,1.495,16.135a17.462,17.462,0,0,0,1.894,8.972c.1.154.187.31.3.464,1.745,2.5,4.183,4.824,7.46,4.726a9.6,9.6,0,0,0,4.638-1.121c3.075-1.838.839-3.415-.011-4.764C11.558,17.74,18.9,11.161,25.62,12.5c7.157,1.425,9.364,10.793,4.8,15.986-2.439,2.769-6.677,3.761-9.644,5.817A14.565,14.565,0,0,0,15.38,40.28c-.651,1.546-1.416,3.807-1,5.637.678,1.71,1.664,3.909,3.732,4.385,3.318.76,7.071.033,7.623-3.862.086-.609-.17-2.238-.073-2.7-.143-2.248,1.419-3.572,3.355-4.729,3.786-2.267,8.16-4.578,10.781-8.265,4.2-5.9,3.446-13.917-.391-19.834M30.317,6.825c-1.43,3.2-6.554,1.854-9.238,2.036-5.09.345-11.824,3.246-11.135,9.533.2,1.886,1.206,3.387,1.172,4.928a6.608,6.608,0,0,1-.088,2.25c-.218.956-1.209,2-2.274,1.7C1.577,25.273,1.97,16.048,5,10.735c2.4-4.21,7.353-7.121,12.437-7.98a19.266,19.266,0,0,1,7.225-.406c1.938.275,7.021,1.431,5.656,4.476m5.694,21.7c-.991,5.007-5.592,6.576-9.493,8.927-2.712,1.632-2.983,3.339-3.568,6.283-.341,1.695-.742,3.509-2.15,4.649a1.745,1.745,0,0,1-1.968.272,1.373,1.373,0,0,1-.812-.124c-4.12-2.047-.894-8.7,1.024-11.214,3.652-4.78,11.175-4.284,14.292-9.589.826-1.4,3.024-.98,2.674.795" transform="translate(0.213 0.159)" fill="#bd4598"/>
        <path id="Path_153" data-name="Path 153" d="M24.013,54.428a7.108,7.108,0,0,0-1.094-2.654c-1.863-2.883-6.166-3.49-8.434-.753-2.387,2.88-2.944,7.8.381,10.207A6.015,6.015,0,0,0,18.438,62.4a5.221,5.221,0,0,0,2.348-.656,6.3,6.3,0,0,0,1.566-1.393A7.517,7.517,0,0,0,23.9,56.635a7.347,7.347,0,0,0,.116-2.207m-6.569,5.231c-2.112.292-3.591-1.718-3.505-3.663a5.655,5.655,0,0,1,3.626-5.1,1.162,1.162,0,0,1,.188-.038l.032-.007c.041,0,.083-.015.122-.018a2.6,2.6,0,0,1,1.313.138c4.405,1.636,2.248,8.132-1.775,8.69" transform="translate(1.837 7.22)" fill="#bd4598"/>
        <path id="Path_154" data-name="Path 154" d="M16.57,3.543C7.118,4.456.943,14.1,5.187,22.906c.141.3.573-.056.5-.311a13.227,13.227,0,0,1,1.7-11.773C9.649,7.347,13.2,6.456,16.776,5c.75-.308.721-1.543-.206-1.454" transform="translate(0.56 0.518)" fill="#fff"/>
        <path id="Path_155" data-name="Path 155" d="M17.637,3.048a1.028,1.028,0,0,0-.164.071c-.055.032-.112.069-.169.1l-.014.014c-.5.054-.87.773-.319,1.041a2.112,2.112,0,0,1,.194.125,1.315,1.315,0,0,0,.488.152c.5.085.952-.492.945-.945a.649.649,0,0,0-.962-.56" transform="translate(2.448 0.437)" fill="#fff"/>
        <path id="Path_156" data-name="Path 156" d="M28.442,28.2c-3.582,1.433-7.291,2.438-10.314,4.935-1.909,1.575-4.012,5.606-3.632,8.13.146.975,1.675.292,1.595-.529-.284-2.91,2.606-6.373,4.672-7.976,2.346-1.818,5.352-2.6,7.838-4.206.195-.127.08-.452-.159-.355" transform="translate(2.118 4.131)" fill="#fff"/>
        <path id="Path_157" data-name="Path 157" d="M18.106,51.2a4.127,4.127,0,0,0-2.387.788,5.308,5.308,0,0,0-1.445,2.062c-.439,1.034-.894,3.972.916,3.942a.8.8,0,0,0,.793-.788,4.54,4.54,0,0,0-.391-1.214,2.767,2.767,0,0,1,.23-1.661c.5-1.278,1.457-1.722,2.445-2.563.22-.19.2-.609-.162-.565" transform="translate(2.035 7.505)" fill="#fff"/>
        <path id="Path_158" data-name="Path 158" d="M16.013,56.824c-.53,0-.83.946-.221.948.529,0,.832-.946.221-.948" transform="translate(2.265 8.329)" fill="#fff"/>
      </g>
    </g>
    <g id="Group_90" data-name="Group 90" transform="translate(1014.308 4268)">
      <g id="Group_89" data-name="Group 89" clip-path="url(#clip-path-11)">
        <path id="Path_159" data-name="Path 159" d="M37.832,11.855c2.926-.723,5.05-3.233,4.988-5.7C42.887,3.691,40.768,1.18,37.844.45,35.1-.233,32.088.051,29.256.1c-3.348.064-6.688.05-10.033.2-3.306.146-6.588.386-9.9.3a14.46,14.46,0,0,0-6.6,1.216.612.612,0,0,0-.392.133c-.082.065-.153.14-.231.211A4.114,4.114,0,0,0,.033,6.126,4.105,4.105,0,0,0,2.09,10.091c.078.072.154.144.231.211a.609.609,0,0,0,.391.134,14.47,14.47,0,0,0,6.6,1.225c3.311-.078,6.594.161,9.9.314,3.344.155,6.687.144,10.032.213,2.834.058,5.843.345,8.591-.333" fill="#38184d"/>
        <path id="Path_160" data-name="Path 160" d="M19.4,11.193c-4.013-.155-8.343-.019-12.257-.84-1.946-.411-4.111-.942-4.973-2.634a3.7,3.7,0,0,1-.428-1.594,3.663,3.663,0,0,1,.433-1.592C3.037,2.843,5.2,2.312,7.15,1.907c3.912-.819,8.245-.673,12.258-.823,4.041-.153,8.059.032,12.1.062,2.564.019,5.134-.351,7.425.9A5.7,5.7,0,0,1,41.9,6.155a5.71,5.71,0,0,1-2.979,4.109c-2.292,1.242-4.863.87-7.428.887-4.037.021-8.056.2-12.1.042" fill="#74459a"/>
        <path id="Path_161" data-name="Path 161" d="M37.817,27.02c2.923-.723,5.051-3.231,4.984-5.7.071-2.465-2.049-4.976-4.974-5.708-2.743-.681-5.756-.4-8.588-.343-3.344.062-6.691.051-10.036.2-3.306.146-6.589.384-9.9.3a14.46,14.46,0,0,0-6.6,1.216.63.63,0,0,0-.395.131c-.079.069-.149.142-.228.212A4.121,4.121,0,0,0,.015,21.293a4.112,4.112,0,0,0,2.058,3.965c.079.07.151.146.231.211A.627.627,0,0,0,2.7,25.6a14.425,14.425,0,0,0,6.6,1.224c3.311-.08,6.589.165,9.9.315,3.34.155,6.684.147,10.031.212,2.832.061,5.845.348,8.592-.332" fill="#38184d"/>
        <path id="Path_162" data-name="Path 162" d="M19.382,26.358c-4.013-.156-8.342-.014-12.258-.84-1.945-.41-4.115-.941-4.972-2.633a3.682,3.682,0,0,1-.431-1.592A3.722,3.722,0,0,1,2.152,19.7c.867-1.689,3.036-2.219,4.982-2.626,3.916-.817,8.247-.673,12.259-.821,4.041-.152,8.057.032,12.1.059,2.564.019,5.133-.349,7.423.9a5.681,5.681,0,0,1,2.969,4.113A5.7,5.7,0,0,1,38.9,25.429c-2.294,1.243-4.863.872-7.424.885-4.041.025-8.056.2-12.1.044" fill="#74459a"/>
        <path id="Path_163" data-name="Path 163" d="M38.931,2.044C36.64.8,34.07,1.166,31.506,1.147c-4.039-.03-8.057-.215-12.1-.062-4.012.149-8.345,0-12.257.822-1.95.406-4.114.936-4.979,2.626a3.67,3.67,0,0,0-.433,1.593A3.7,3.7,0,0,0,2.165,7.72c.863,1.692,3.028,2.222,4.974,2.633,3.914.821,8.244.685,12.257.84,4.041.156,8.059-.02,12.1-.042,2.566-.016,5.137.356,7.429-.887A5.713,5.713,0,0,0,41.9,6.155a5.707,5.707,0,0,0-2.969-4.111m-4.96,3.311c-.6,1.6-2.582,1.921-4.386,2.169a84.354,84.354,0,0,1-8.967.648c-3.355.1-6.739.147-10.086-.077-1.849-.12-4.288-.129-5.847-1.07-1.186-.714-.263-2.279.951-2.7C8.995,1.808,16.263,2.638,20.49,2.629c1.926,0,14.8-.741,13.481,2.726" fill="#3e2d78"/>
        <path id="Path_164" data-name="Path 164" d="M38.912,17.208c-2.29-1.246-4.859-.879-7.423-.9-4.039-.026-8.055-.21-12.1-.059-4.012.148-8.343.005-12.259.821-1.947.407-4.115.937-4.982,2.626a3.726,3.726,0,0,0-.431,1.595,3.694,3.694,0,0,0,.43,1.592c.858,1.691,3.028,2.223,4.973,2.632,3.916.827,8.245.685,12.258.841,4.043.157,8.057-.019,12.1-.044,2.562-.013,5.13.358,7.425-.885a5.7,5.7,0,0,0,2.976-4.108,5.681,5.681,0,0,0-2.969-4.113M30.126,22.2a1.88,1.88,0,0,1-.84.361,87.866,87.866,0,0,1-19.053.988c-1.853-.109-6.981-.1-6.763-2.521.26-2.894,3.817-3.328,6.8-3.408,4.71-.127,9.421.042,14.126-.112,2.388-.081,7.241-.5,8.271,1.844.639,1.471-.905,2.361-2.538,2.848" fill="#3e2d78"/>
        <path id="Path_165" data-name="Path 165" d="M24.36,3.09a117.937,117.937,0,0,0-12.286.063A8.638,8.638,0,0,0,5.923,5.5c-.168.161.054.391.272.244,2.791-1.9,6.2-1.7,9.636-1.723,2.821-.019,5.64-.113,8.448-.351.353-.029.512-.553.081-.582" fill="#fff"/>
        <path id="Path_166" data-name="Path 166" d="M15.73,18.108a36.469,36.469,0,0,0-7.754.142,3.313,3.313,0,0,0-2.794,2.3c-.044.129.152.157.238.076,2.554-2.466,6.768-1.363,10.225-1.9.385-.059.532-.547.085-.618" fill="#fff"/>
        <path id="Path_167" data-name="Path 167" d="M19.052,18.183a.571.571,0,0,0-.3-.117c.014,0-.253-.013-.207.009-.51-.243-1.167.358-.7.694a1.081,1.081,0,0,0,1.116.036.366.366,0,0,0,.092-.622" fill="#fff"/>
      </g>
    </g>
  </g>
</svg>
